<svg width="30" height="30" viewBox="0 0 30 30" fill="none" xmlns="http://www.w3.org/2000/svg">
<path d="M15 5C9.48 5 5 9.48 5 15C5 20.52 9.48 25 15 25C20.52 25 25 20.52 25 15C25 9.48 20.52 5 15 5ZM15.71 20.21C15.52 20.4 15.27 20.5 15 20.5C14.73 20.5 14.48 20.39 14.29 20.21C14.1 20.03 14 19.77 14 19.5C14 19.23 14.11 18.98 14.29 18.79C14.47 18.6 14.73 18.5 15 18.5C15.27 18.5 15.52 18.61 15.71 18.79C15.9 18.97 16 19.23 16 19.5C16 19.77 15.89 20.02 15.71 20.21ZM16.7 14.86L16.53 15.03C15.91 15.65 15.75 15.92 15.75 16.5C15.75 16.7 15.67 16.89 15.53 17.03C15.39 17.17 15.2 17.25 15 17.25C14.8 17.25 14.61 17.17 14.47 17.03C14.33 16.89 14.25 16.7 14.25 16.5C14.25 15.49 14.55 14.93 15.3 14.14L15.47 13.97C16.09 13.35 16.25 13.08 16.25 12.5C16.25 12.18 16.13 11.87 15.9 11.64C15.68 11.41 15.38 11.27 15.06 11.25C14.74 11.23 14.43 11.34 14.18 11.55C13.94 11.76 13.78 12.05 13.75 12.37V12.5C13.75 12.7 13.67 12.89 13.53 13.03C13.39 13.17 13.2 13.25 13 13.25C12.8 13.25 12.61 13.17 12.47 13.03C12.33 12.89 12.25 12.7 12.25 12.5C12.25 11.77 12.54 11.07 13.06 10.56C13.57 10.04 14.27 9.75 15 9.75C15.73 9.75 16.43 10.04 16.94 10.56C17.46 11.08 17.75 11.78 17.75 12.5C17.75 13.51 17.45 14.07 16.7 14.86Z" fill="black"/>
</svg>
