<svg width="30" height="30" viewBox="0 0 30 30" fill="none" xmlns="http://www.w3.org/2000/svg">
<path d="M15 5C20.523 5 25 9.478 25 15C25 20.522 20.523 25 15 25C9.477 25 5 20.522 5 15C5 9.478 9.477 5 15 5ZM15 6.667C10.405 6.667 6.667 10.405 6.667 15C6.667 19.595 10.405 23.333 15 23.333C19.595 23.333 23.333 19.595 23.333 15C23.333 10.405 19.595 6.667 15 6.667V6.667ZM15 18.5C15.2652 18.5 15.5196 18.6054 15.7071 18.7929C15.8946 18.9804 16 19.2348 16 19.5C16 19.7652 15.8946 20.0196 15.7071 20.2071C15.5196 20.3946 15.2652 20.5 15 20.5C14.7348 20.5 14.4804 20.3946 14.2929 20.2071C14.1054 20.0196 14 19.7652 14 19.5C14 19.2348 14.1054 18.9804 14.2929 18.7929C14.4804 18.6054 14.7348 18.5 15 18.5V18.5ZM15 9.75C15.7293 9.75 16.4288 10.0397 16.9445 10.5555C17.4603 11.0712 17.75 11.7707 17.75 12.5C17.75 13.51 17.453 14.074 16.699 14.859L16.53 15.03C15.908 15.652 15.75 15.916 15.75 16.5C15.75 16.6989 15.671 16.8897 15.5303 17.0303C15.3897 17.171 15.1989 17.25 15 17.25C14.8011 17.25 14.6103 17.171 14.4697 17.0303C14.329 16.8897 14.25 16.6989 14.25 16.5C14.25 15.49 14.547 14.926 15.301 14.141L15.47 13.97C16.092 13.348 16.25 13.084 16.25 12.5C16.249 12.1803 16.1255 11.8731 15.9049 11.6417C15.6843 11.4102 15.3834 11.2721 15.0641 11.2557C14.7448 11.2393 14.4313 11.3459 14.1882 11.5535C13.9451 11.7612 13.7908 12.0541 13.757 12.372L13.75 12.5C13.75 12.6989 13.671 12.8897 13.5303 13.0303C13.3897 13.171 13.1989 13.25 13 13.25C12.8011 13.25 12.6103 13.171 12.4697 13.0303C12.329 12.8897 12.25 12.6989 12.25 12.5C12.25 11.7707 12.5397 11.0712 13.0555 10.5555C13.5712 10.0397 14.2707 9.75 15 9.75V9.75Z" fill="black"/>
</svg>
