<svg width="30" height="30" viewBox="0 0 30 30" fill="none" xmlns="http://www.w3.org/2000/svg">
<path d="M18.0375 15C18.0375 13.3125 16.6875 11.9625 15 11.9625C13.3125 11.9625 11.9625 13.3125 11.9625 15C11.9625 16.6875 13.3125 18.0375 15 18.0375C16.6875 18.0375 18.0375 16.6875 18.0375 15ZM19.6125 15C19.6125 17.5875 17.5875 19.6125 15 19.6125C12.4125 19.6125 10.3875 17.5875 10.3875 15C10.3875 12.4125 12.4125 10.3875 15 10.3875C17.5875 10.3875 19.6125 12.4125 19.6125 15ZM20.85 10.1625C20.85 10.8375 20.4 11.2875 19.725 11.2875C19.05 11.2875 18.6 10.8375 18.6 10.1625C18.6 9.4875 19.05 9.0375 19.725 9.0375C20.4 9.0375 20.85 9.6 20.85 10.1625ZM15 7.575C13.65 7.575 10.8375 7.4625 9.7125 7.9125C8.925 8.25 8.25 8.925 8.025 9.7125C7.575 10.8375 7.6875 13.65 7.6875 15C7.6875 16.35 7.575 19.1625 8.025 20.2875C8.25 21.075 8.925 21.75 9.7125 21.975C10.8375 22.425 13.7625 22.3125 15 22.3125C16.2375 22.3125 19.1625 22.425 20.2875 21.975C21.075 21.6375 21.6375 21.075 21.975 20.2875C22.425 19.05 22.3125 16.2375 22.3125 15C22.3125 13.7625 22.425 10.8375 21.975 9.7125C21.75 8.925 21.075 8.25 20.2875 8.025C19.1625 7.4625 16.35 7.575 15 7.575ZM24 15V18.7125C24 20.0625 23.55 21.4125 22.5375 22.5375C21.525 23.55 20.175 24 18.7125 24H11.2875C9.9375 24 8.5875 23.55 7.4625 22.5375C6.5625 21.525 6 20.175 6 18.7125V15V11.2875C6 9.825 6.5625 8.475 7.4625 7.4625C8.5875 6.5625 9.9375 6 11.2875 6H18.7125C20.0625 6 21.4125 6.45 22.5375 7.4625C23.4375 8.475 24 9.825 24 11.2875V15Z" fill="black"/>
</svg>
