<svg width="30" height="30" viewBox="0 0 30 30" fill="none" xmlns="http://www.w3.org/2000/svg">
<path fill-rule="evenodd" clip-rule="evenodd" d="M25.8995 15C25.8995 15.5523 25.4518 16 24.8995 16H5.10051C4.54822 16 4.10051 15.5523 4.10051 15C4.10051 14.4477 4.54822 14 5.10051 14H24.8995C25.4518 14 25.8995 14.4477 25.8995 15Z" fill="black"/>
<path fill-rule="evenodd" clip-rule="evenodd" d="M15 25.8995C14.4477 25.8995 14 25.4518 14 24.8995L14 5.1005C14 4.54822 14.4477 4.1005 15 4.1005C15.5523 4.1005 16 4.54822 16 5.1005L16 24.8995C16 25.4518 15.5523 25.8995 15 25.8995Z" fill="black"/>
</svg>
