<svg width="30" height="30" viewBox="0 0 30 30" fill="none" xmlns="http://www.w3.org/2000/svg">
<path d="M23.7922 6.21868L23.8274 6.18324C23.7193 6.07566 23.5828 6.00118 23.4338 5.96855C23.2849 5.93592 23.1297 5.9465 22.9865 5.99903C22.9865 5.99904 22.9865 5.99904 22.9865 5.99904L6.46749 12.006L6.46749 12.006L6.46684 12.0062C6.31489 12.0638 6.18407 12.1663 6.09176 12.3001C5.99944 12.4338 5.95 12.5925 5.95 12.755C5.95 12.9175 5.99944 13.0762 6.09176 13.2099C6.18399 13.3436 6.31465 13.446 6.46642 13.5037C6.46656 13.5037 6.4667 13.5038 6.46684 13.5038L13.6545 16.3789L16.5298 23.5673L23.7922 6.21868ZM23.7922 6.21868L23.8283 6.18415C23.9332 6.29395 24.0047 6.43131 24.0344 6.5802C24.0642 6.72896 24.0511 6.8831 23.9966 7.0247C23.9966 7.02482 23.9965 7.02494 23.9965 7.02506L17.9899 23.5433C17.9899 23.5433 17.9899 23.5433 17.9899 23.5433C17.9349 23.6955 17.835 23.8275 17.7035 23.9219C17.572 24.0162 17.4149 24.0685 17.2531 24.0718L17.2506 24.0719L17.2506 24.0718C17.0943 24.0673 16.9428 24.017 16.8147 23.9274C16.6867 23.8377 16.5876 23.7126 16.5299 23.5674L23.7922 6.21868ZM18.7892 12.3511L18.8245 12.3158L18.7892 12.2804L17.7304 11.2217L17.6951 11.1863L17.6597 11.2217L14.0565 14.8249L8.98186 12.7615L21.9219 8.08896L17.2498 21.0277L15.2158 15.9245L18.7892 12.3511Z" fill="black" stroke="black" stroke-width="0.1"/>
</svg>
