<svg width="30" height="30" viewBox="0 0 30 30" fill="none" xmlns="http://www.w3.org/2000/svg">
<path fill-rule="evenodd" clip-rule="evenodd" d="M15 25C20.5228 25 25 20.5228 25 15C25 9.47715 20.5228 5 15 5C9.47715 5 5 9.47715 5 15C5 20.5228 9.47715 25 15 25ZM14.5756 16.9819C14.7207 17.1181 14.8936 17.1862 15.0945 17.1862C15.2953 17.1862 15.4627 17.1181 15.5966 16.9819C15.7416 16.8457 15.8253 16.6471 15.8476 16.386L16.6008 10.444C16.6677 9.94458 16.5506 9.54731 16.2493 9.25219C15.9592 8.95708 15.5743 8.80952 15.0945 8.80952C14.6593 8.80952 14.2967 8.93438 14.0066 9.18409C13.7165 9.4338 13.5714 9.76864 13.5714 10.1886C13.5714 10.2908 13.577 10.3702 13.5882 10.427L14.3246 16.386C14.3581 16.6471 14.4417 16.8457 14.5756 16.9819ZM14.0735 20.5914C14.3413 20.8638 14.6816 21 15.0945 21C15.5073 21 15.8476 20.8638 16.1154 20.5914C16.3832 20.3076 16.5171 19.9558 16.5171 19.5358C16.5171 19.1158 16.3832 18.7696 16.1154 18.4972C15.8476 18.2134 15.5073 18.0716 15.0945 18.0716C14.6816 18.0716 14.3413 18.2134 14.0735 18.4972C13.8057 18.7696 13.6718 19.1158 13.6718 19.5358C13.6718 19.9558 13.8057 20.3076 14.0735 20.5914Z" fill="black"/>
</svg>
