<svg width="30" height="30" viewBox="0 0 30 30" fill="none" xmlns="http://www.w3.org/2000/svg">
<path d="M25 14.8495C25 14.8028 25 14.7496 24.9979 14.6879C24.9958 14.5157 24.9915 14.3222 24.9873 14.1159C24.9703 13.5226 24.9406 12.9314 24.894 12.3743C24.8304 11.6066 24.7371 10.9665 24.6098 10.4859C24.4756 9.98437 24.2124 9.52695 23.8466 9.15938C23.4808 8.7918 23.0252 8.52695 22.5253 8.39128C21.9252 8.22966 20.7504 8.12972 19.0964 8.06805C18.3097 8.03828 17.4679 8.01914 16.626 8.00851C16.3312 8.00425 16.0577 8.00213 15.8117 8H15.1883C14.9423 8.00213 14.6687 8.00425 14.374 8.00851C13.5321 8.01914 12.6903 8.03828 11.9036 8.06805C10.2496 8.13184 9.07266 8.23179 8.47467 8.39128C7.97464 8.52661 7.51887 8.79136 7.15303 9.15898C6.78718 9.52661 6.52411 9.9842 6.39018 10.4859C6.26083 10.9665 6.16964 11.6066 6.10603 12.3743C6.05937 12.9314 6.02969 13.5226 6.01272 14.1159C6.00636 14.3222 6.00424 14.5157 6.00212 14.6879C6.00212 14.7496 6 14.8028 6 14.8495V14.9686C6 15.0154 6 15.0686 6.00212 15.1302C6.00424 15.3025 6.00848 15.496 6.01272 15.7023C6.02969 16.2956 6.05937 16.8868 6.10603 17.4439C6.16964 18.2116 6.26295 18.8517 6.39018 19.3323C6.66161 20.3509 7.45893 21.1547 8.47467 21.4269C9.07266 21.5885 10.2496 21.6885 11.9036 21.7501C12.6903 21.7799 13.5321 21.799 14.374 21.8097C14.6687 21.8139 14.9423 21.8161 15.1883 21.8182H15.8117C16.0577 21.8161 16.3312 21.8139 16.626 21.8097C17.4679 21.799 18.3097 21.7799 19.0964 21.7501C20.7504 21.6863 21.9273 21.5864 22.5253 21.4269C23.5411 21.1547 24.3384 20.353 24.6098 19.3323C24.7392 18.8517 24.8304 18.2116 24.894 17.4439C24.9406 16.8868 24.9703 16.2956 24.9873 15.7023C24.9936 15.496 24.9958 15.3025 24.9979 15.1302C24.9979 15.0686 25 15.0154 25 14.9686V14.8495V14.8495ZM23.4732 14.9601C23.4732 15.0048 23.4732 15.0537 23.4711 15.1111C23.469 15.277 23.4647 15.4599 23.4605 15.6576C23.4456 16.2233 23.416 16.7889 23.3714 17.3142C23.3142 17.9989 23.2336 18.5603 23.1339 18.9367C23.0025 19.428 22.6165 19.8171 22.1288 19.9468C21.6835 20.0659 20.5617 20.1616 19.0371 20.219C18.2652 20.2488 17.4339 20.2679 16.6048 20.2786C16.3143 20.2828 16.045 20.285 15.8032 20.285H15.1968L14.3952 20.2786C13.5661 20.2679 12.7369 20.2488 11.9629 20.219C10.4383 20.1595 9.3144 20.0659 8.87121 19.9468C8.38348 19.815 7.99754 19.428 7.86607 18.9367C7.76641 18.5603 7.68583 17.9989 7.62857 17.3142C7.58404 16.7889 7.55647 16.2233 7.53951 15.6576C7.53315 15.4599 7.53103 15.2749 7.52891 15.1111C7.52891 15.0537 7.52679 15.0027 7.52679 14.9601V14.8581C7.52679 14.8134 7.52679 14.7645 7.52891 14.7071C7.53103 14.5412 7.53527 14.3583 7.53951 14.1606C7.55435 13.5949 7.58404 13.0292 7.62857 12.504C7.68583 11.8192 7.76641 11.2578 7.86607 10.8814C7.99754 10.3902 8.38348 10.0011 8.87121 9.87134C9.31652 9.75226 10.4383 9.65657 11.9629 9.59915C12.7348 9.56938 13.5661 9.55024 14.3952 9.53961C14.6857 9.53535 14.955 9.53323 15.1968 9.53323H15.8032L16.6048 9.53961C17.4339 9.55024 18.2631 9.56938 19.0371 9.59915C20.5617 9.65869 21.6856 9.75226 22.1288 9.87134C22.6165 10.0032 23.0025 10.3902 23.1339 10.8814C23.2336 11.2578 23.3142 11.8192 23.3714 12.504C23.416 13.0292 23.4435 13.5949 23.4605 14.1606C23.4669 14.3583 23.469 14.5433 23.4711 14.7071C23.4711 14.7645 23.4732 14.8155 23.4732 14.8581V14.9601ZM13.6127 17.7586L18.5324 14.8878L13.6127 12.0595V17.7586Z" fill="black"/>
</svg>
