<svg width="60" height="60" viewBox="0 0 60 60" fill="none" xmlns="http://www.w3.org/2000/svg">
<path d="M18.7889 43C22.5383 43 25.5778 39.9605 25.5778 36.2111C25.5778 32.4617 22.5383 29.4222 18.7889 29.4222C15.0395 29.4222 12 32.4617 12 36.2111C12 39.9605 15.0395 43 18.7889 43Z" stroke="black" stroke-miterlimit="10" stroke-linecap="round" stroke-linejoin="round"/>
<path d="M41.211 43C44.9604 43 47.9999 39.9605 47.9999 36.2111C47.9999 32.4617 44.9604 29.4222 41.211 29.4222C37.4616 29.4222 34.4221 32.4617 34.4221 36.2111C34.4221 39.9605 37.4616 43 41.211 43Z" stroke="black" stroke-miterlimit="10" stroke-linecap="round" stroke-linejoin="round"/>
<path d="M41.2111 36.2111L36.2111 20.4333L41.2111 18" stroke="black" stroke-miterlimit="10" stroke-linecap="round" stroke-linejoin="round"/>
<path d="M21.2999 19.2222H25.5777" stroke="black" stroke-miterlimit="10" stroke-linecap="round" stroke-linejoin="round"/>
<path d="M23.4334 19.2222L29.1889 36.211H18.7889" stroke="black" stroke-miterlimit="10" stroke-linecap="round" stroke-linejoin="round"/>
<path d="M26.111 27.1111L36.9776 22.8778L29.1887 36.2111" stroke="black" stroke-miterlimit="10" stroke-linecap="round" stroke-linejoin="round"/>
</svg>
