<svg width="60" height="60" viewBox="0 0 60 60" fill="none" xmlns="http://www.w3.org/2000/svg">
<path d="M26.9554 51.936C26.0262 51.6037 26.3359 50.0024 26.1261 49.237C25.8064 48.0587 25.3068 47.0013 24.4075 46.1452C23.4583 45.2489 22.2293 44.6144 21.5698 43.4865C21.0103 42.5398 20.9403 41.4018 20.6006 40.3544C20.2409 39.2366 19.5715 38.2295 19.2417 37.0914C18.8421 35.7016 18.9919 34.2011 19.3017 32.7911C20.2409 28.4304 22.569 24.5128 24.9371 20.7463C26.276 18.6213 27.6349 16.5064 28.9938 14.3915C29.5133 13.5758 30.0629 12.7499 30.8522 12.196C31.9613 11.4306 33.4601 11.3098 34.4493 10.3833C34.9589 9.90993 35.3486 9.21504 36.018 9.04383C37.1571 8.7417 38.0064 10.0811 39.0555 10.625C39.8149 11.0177 40.874 11.0882 41.2337 11.8738C41.6534 12.7802 40.7541 13.7067 40.3944 14.6433C39.8749 15.9928 40.5343 17.5135 40.3744 18.9436C40.2146 20.4139 39.2354 21.6426 38.5559 22.9619C37.6367 24.7445 37.247 26.7586 36.8573 28.7225C36.2378 31.8344 35.5684 34.9866 34.1096 37.8065C32.411 41.0795 29.6132 43.99 29.3635 47.676C29.3035 48.5623 29.3934 49.4888 29.0937 50.3247C28.8439 51.0095 27.9946 52.1072 27.1453 51.9763C27.0753 51.9763 27.0154 51.9562 26.9554 51.936Z" stroke="black" stroke-miterlimit="10"/>
<path opacity="0.45" d="M25.8263 34.8255C25.8263 34.8255 28.5941 34.2111 28.8938 29.7195C29.0837 26.9802 30.5425 24.6337 31.6616 23.2338C32.0512 22.7403 31.6416 22.0253 31.0221 22.126L29.3335 22.3878C27.475 22.6799 25.7864 22.0253 24.5773 21.3203C22.3392 24.9156 20.1909 28.6419 19.3017 32.7911C19.0019 34.2111 18.852 35.7016 19.2417 37.0914C19.4316 37.746 19.7313 38.3503 20.0211 38.9646C21.9395 35.8728 25.8263 34.8255 25.8263 34.8255Z" fill="black"/>
</svg>
