<svg width="60" height="60" viewBox="0 0 60 60" fill="none" xmlns="http://www.w3.org/2000/svg">
<path d="M20.98 17.3025C20.9064 16.9101 20.8696 16.5176 20.8696 16.1129C20.8696 12.5197 23.7761 9.61319 27.3694 9.61319C30.1655 9.61319 32.5446 11.3792 33.4644 13.8564" stroke="black" stroke-miterlimit="10" stroke-linecap="round" stroke-linejoin="round"/>
<path d="M29.1108 17.2044C30.19 15.1196 32.373 13.697 34.887 13.697C38.4803 13.697 41.3868 16.6035 41.3868 20.1967C41.3868 21.6438 40.9085 22.9929 40.1113 24.0721" stroke="black" stroke-miterlimit="10" stroke-linecap="round" stroke-linejoin="round"/>
<path d="M18.8707 24.1334C18.699 23.557 18.6132 22.9438 18.6132 22.3061C18.6132 20.3439 19.4839 18.5779 20.8697 17.3884C22.0102 16.4073 23.4941 15.8186 25.1129 15.8186C28.7062 15.8186 31.6126 18.7251 31.6126 22.3183C31.6126 22.9561 31.5268 23.5692 31.3551 24.1456" stroke="black" stroke-miterlimit="10" stroke-linecap="round" stroke-linejoin="round"/>
<path d="M18.8707 24.1334H40.2095L29.5401 49.4088L18.8707 24.1334Z" stroke="black" stroke-miterlimit="10" stroke-linecap="round" stroke-linejoin="round"/>
<path d="M26.3761 34.2877L28.044 38.5432L29.5401 34.2877L31.1344 38.5432L32.6919 34.2877" stroke="black" stroke-miterlimit="10" stroke-linecap="round" stroke-linejoin="round"/>
<path d="M23.2244 27.0521L24.88 31.3076L26.3761 27.0521L27.9704 31.3076L29.5402 27.0521" stroke="black" stroke-miterlimit="10" stroke-linecap="round" stroke-linejoin="round"/>
</svg>
