<svg width="60" height="60" viewBox="0 0 60 60" fill="none" xmlns="http://www.w3.org/2000/svg">
<path d="M26.9554 51.936C26.0262 51.6037 26.3359 50.0024 26.1261 49.237C25.8064 48.0587 25.3068 47.0013 24.4075 46.1452C23.4583 45.2489 22.2293 44.6144 21.5698 43.4865C21.0103 42.5398 20.9403 41.4018 20.6006 40.3544C20.2409 39.2366 19.5715 38.2295 19.2417 37.0914C18.8421 35.7016 18.9919 34.2011 19.3017 32.7911C20.2409 28.4304 22.569 24.5128 24.9371 20.7463C26.276 18.6213 27.6349 16.5064 28.9937 14.3915C29.5133 13.5758 30.0629 12.7499 30.8522 12.196C31.9613 11.4306 33.4601 11.3098 34.4493 10.3833C34.9589 9.90993 35.3486 9.21504 36.018 9.04383C37.1571 8.7417 38.0064 10.0811 39.0555 10.625C39.8149 11.0177 40.874 11.0882 41.2337 11.8738C41.6534 12.7802 40.7541 13.7067 40.3944 14.6433C39.8748 15.9928 40.5343 17.5135 40.3744 18.9436C40.2146 20.4139 39.2354 21.6426 38.5559 22.9619C37.6367 24.7445 37.247 26.7586 36.8573 28.7225C36.2378 31.8344 35.5684 34.9866 34.1096 37.8065C32.411 41.0795 29.6132 43.99 29.3634 47.676C29.3035 48.5623 29.3934 49.4888 29.0937 50.3247C28.8439 51.0095 27.9946 52.1072 27.1453 51.9763C27.0653 51.9763 27.0054 51.9562 26.9554 51.936Z" stroke="black" stroke-miterlimit="10"/>
<path opacity="0.45" d="M32.9306 21.8239C34.5992 21.0081 37.337 19.9305 40.3745 18.8026C40.4744 17.4027 39.8849 15.9424 40.3845 14.6433C40.7442 13.7067 41.6434 12.7802 41.2238 11.8738C40.8641 11.0882 39.8049 11.0177 39.0456 10.625C37.9964 10.0811 37.1571 8.7417 36.008 9.04383C35.3386 9.21504 34.9489 9.90993 34.4393 10.3833C33.4501 11.3098 31.9514 11.4306 30.8423 12.196C30.0529 12.7399 29.5034 13.5758 28.9838 14.3915C27.6249 16.5064 26.266 18.6112 24.9271 20.7463C24.8072 20.9376 24.6873 21.129 24.5774 21.3203C27.8048 22.5288 30.9722 22.7806 32.9306 21.8239Z" fill="black"/>
</svg>
