<svg width="60" height="60" viewBox="0 0 60 60" fill="none" xmlns="http://www.w3.org/2000/svg">
<path d="M29.604 45.792C38.6636 45.792 46.008 38.4477 46.008 29.388C46.008 20.3283 38.6636 12.984 29.604 12.984C20.5443 12.984 13.2 20.3283 13.2 29.388C13.2 38.4477 20.5443 45.792 29.604 45.792Z" stroke="black" stroke-miterlimit="10" stroke-linecap="round" stroke-linejoin="round"/>
<path d="M29.604 45.792C38.6636 45.792 46.008 38.4477 46.008 29.388C46.008 20.3283 38.6636 12.984 29.604 12.984C20.5443 12.984 13.2 20.3283 13.2 29.388C13.2 38.4477 20.5443 45.792 29.604 45.792Z" stroke="black" stroke-miterlimit="10" stroke-linecap="round" stroke-linejoin="round"/>
<path d="M29.6039 43.068C37.1592 43.068 43.284 36.9432 43.284 29.388C43.284 21.8327 37.1592 15.708 29.6039 15.708C22.0487 15.708 15.924 21.8327 15.924 29.388C15.924 36.9432 22.0487 43.068 29.6039 43.068Z" stroke="black" stroke-miterlimit="10" stroke-linecap="round" stroke-linejoin="round"/>
<path d="M30.6 20.16C32.352 20.868 32.448 24.372 30.816 27.972C29.184 31.572 24.684 33.204 24.684 33.204C24.684 33.204 22.836 28.992 24.468 25.392C26.1 21.792 28.848 19.452 30.6 20.16Z" stroke="black" stroke-miterlimit="10" stroke-linecap="round" stroke-linejoin="round"/>
<path d="M24.2399 33.216L21.5999 34.644C21.2159 34.848 21.2519 35.4 21.6479 35.568L25.0079 36.936C25.3919 37.092 25.7999 36.744 25.6919 36.336L24.9719 33.54C24.8999 33.216 24.5279 33.06 24.2399 33.216Z" stroke="black" stroke-miterlimit="10" stroke-linecap="round" stroke-linejoin="round"/>
<path d="M40.08 10.8L29.604 48.684" stroke="black" stroke-miterlimit="10" stroke-linecap="round" stroke-linejoin="round"/>
<path d="M43.2959 11.544L32.8199 49.44" stroke="black" stroke-miterlimit="10" stroke-linecap="round" stroke-linejoin="round"/>
</svg>
