<svg width="60" height="60" viewBox="0 0 60 60" fill="none" xmlns="http://www.w3.org/2000/svg">
<path opacity="0.45" d="M27.5848 37.6554C27.5848 35.3895 31.2219 33.4357 25.5165 34.8255C22.6988 35.5103 20.8204 36.9001 19.6313 38.1288C19.9611 38.8639 20.3508 39.589 20.6006 40.3544C20.9403 41.4018 21.0102 42.5398 21.5698 43.4865C22.2292 44.6145 23.4582 45.2489 24.4074 46.1452C25.3067 46.9912 25.8063 48.0487 26.126 49.237C26.3359 50.0125 26.0261 51.6138 26.9554 51.936C27.0153 51.9562 27.0753 51.9763 27.1352 51.9864C27.9845 52.1173 28.8338 51.0196 29.0836 50.3348C29.3834 49.4989 29.2934 48.5723 29.3534 47.6861C29.4433 46.3869 29.853 45.1885 30.4125 44.0303C29.7331 42.9225 28.8338 41.7744 28.7239 41.0493C28.5341 39.8106 27.5848 39.9214 27.5848 37.6554Z" fill="black"/>
<path d="M26.9554 51.936C26.0262 51.6037 26.3359 50.0024 26.1261 49.237C25.8064 48.0587 25.3068 47.0013 24.4075 46.1452C23.4583 45.2489 22.2293 44.6144 21.5698 43.4865C21.0103 42.5398 20.9403 41.4018 20.6006 40.3544C20.2409 39.2366 19.5715 38.2295 19.2417 37.0914C18.8421 35.7016 18.9919 34.2011 19.3017 32.7911C20.2409 28.4304 22.569 24.5128 24.9371 20.7463C26.276 18.6213 27.6349 16.5064 28.9937 14.3915C29.5133 13.5758 30.0629 12.7499 30.8522 12.196C31.9613 11.4306 33.4601 11.3098 34.4493 10.3833C34.9589 9.90993 35.3485 9.21504 36.018 9.04383C37.1571 8.7417 38.0064 10.0811 39.0555 10.625C39.8149 11.0177 40.874 11.0882 41.2337 11.8738C41.6534 12.7802 40.7541 13.7067 40.3944 14.6433C39.8748 15.9928 40.5343 17.5135 40.3744 18.9436C40.2146 20.4139 39.2354 21.6426 38.5559 22.9619C37.6367 24.7445 37.247 26.7586 36.8573 28.7225C36.2378 31.8344 35.5684 34.9866 34.1096 37.8065C32.411 41.0795 29.6132 43.99 29.3635 47.676C29.3035 48.5623 29.3934 49.4888 29.0937 50.3247C28.8439 51.0095 27.9946 52.1072 27.1453 51.9763C27.0753 51.9763 27.0154 51.9562 26.9554 51.936Z" stroke="black" stroke-miterlimit="10"/>
</svg>
