<svg width="60" height="60" viewBox="0 0 60 60" fill="none" xmlns="http://www.w3.org/2000/svg">
<path d="M19.068 47.244H12V17.928H34.8V32.58" stroke="black" stroke-miterlimit="10" stroke-linecap="round" stroke-linejoin="round"/>
<path d="M35.64 33.612L42.264 30.492L47.352 41.436H19.068L30.468 36.06" stroke="black" stroke-miterlimit="10" stroke-linecap="round" stroke-linejoin="round"/>
<path d="M47.352 41.436H19.068V50.196H47.352V41.436Z" stroke="black" stroke-miterlimit="10" stroke-linecap="round" stroke-linejoin="round"/>
<path d="M33.216 37.728C34.7536 37.728 36 36.4815 36 34.944C36 33.4064 34.7536 32.16 33.216 32.16C31.6785 32.16 30.432 33.4064 30.432 34.944C30.432 36.4815 31.6785 37.728 33.216 37.728Z" stroke="black" stroke-miterlimit="10" stroke-linecap="round" stroke-linejoin="round"/>
<path d="M23.4001 10.8C21.4321 10.8 19.8361 12.396 19.8361 14.364V17.76C19.8361 17.856 19.908 17.928 20.004 17.928H26.784C26.88 17.928 26.9521 17.856 26.9521 17.76V14.364C26.9641 12.396 25.3681 10.8 23.4001 10.8Z" stroke="black" stroke-miterlimit="10" stroke-linecap="round" stroke-linejoin="round"/>
<path d="M12 22.476H34.248" stroke="black" stroke-miterlimit="10" stroke-linecap="round" stroke-linejoin="round"/>
</svg>
