<svg width="30" height="30" viewBox="0 0 30 30" fill="none" xmlns="http://www.w3.org/2000/svg">
<path fill-rule="evenodd" clip-rule="evenodd" d="M22.7071 7.29289C23.0976 7.68342 23.0976 8.31658 22.7071 8.70711L8.70711 22.7071C8.31658 23.0976 7.68342 23.0976 7.29289 22.7071C6.90237 22.3166 6.90237 21.6834 7.29289 21.2929L21.2929 7.29289C21.6834 6.90237 22.3166 6.90237 22.7071 7.29289Z" fill="black"/>
<path fill-rule="evenodd" clip-rule="evenodd" d="M22.7071 22.7071C22.3166 23.0976 21.6834 23.0976 21.2929 22.7071L7.29289 8.70711C6.90237 8.31658 6.90237 7.68342 7.29289 7.29289C7.68342 6.90237 8.31658 6.90237 8.70711 7.29289L22.7071 21.2929C23.0976 21.6834 23.0976 22.3166 22.7071 22.7071Z" fill="black"/>
</svg>
