<svg width="30" height="30" viewBox="0 0 30 30" fill="none" xmlns="http://www.w3.org/2000/svg">
<path d="M6.33426 8.33426C7.29459 7.38033 8.59428 6.84648 9.94793 6.85002C11.3024 6.85355 12.6 7.39483 13.5555 8.35484L14.158 7.75522L13.5576 8.35692L14.39 9.18748L14.9917 9.78786L15.5921 9.18614L16.4097 8.36673C16.41 8.36643 16.4103 8.36614 16.4106 8.36584C16.8864 7.8923 17.4508 7.5171 18.0717 7.26168C18.6929 7.0061 19.3584 6.87545 20.0302 6.8772C20.7019 6.87896 21.3667 7.01307 21.9866 7.27189C22.6065 7.53071 23.1693 7.90916 23.6428 8.3856L23.6459 8.38871C24.6055 9.34414 25.1464 10.6414 25.15 11.9955C25.1535 13.3491 24.6197 14.6488 23.6658 15.6091C23.6655 15.6095 23.6651 15.6098 23.6648 15.6101L15.0807 24.1887L15.0806 24.1888C15.0681 24.2013 15.0512 24.2083 15.0335 24.2083C15.0158 24.2083 14.9988 24.2013 14.9863 24.1888C14.9863 24.1888 14.9863 24.1888 14.9863 24.1888L6.35632 15.557L6.35484 15.5555C5.39483 14.6 4.85355 13.3024 4.85002 11.9479C4.84648 10.5943 5.38033 9.29459 6.33426 8.33426Z" stroke="black" stroke-width="1.7"/>
</svg>
