<svg width="250" height="157" viewBox="0 0 250 157" fill="none" xmlns="http://www.w3.org/2000/svg">
<g clip-path="url(#clip0_98_5476)">
<path d="M94.5543 34.9578C91.3474 34.9578 88.6766 35.2331 85.3803 34.7414C80.4756 34.4168 75.2929 34.6922 70.6563 36.4134C66.7842 37.8593 63.2397 40.5247 61.4724 44.2327C61.9093 41.7148 62.4951 39.2067 63.5773 36.8954C64.6595 34.584 66.258 32.4497 68.4125 31.053C70.289 29.8334 72.5626 29.1941 74.8064 29.2629C78.2417 29.381 81.3295 31.0333 84.3676 32.4398C87.644 33.9545 90.9105 34.9282 94.5543 34.9578Z" fill="#F1D675"/>
<path d="M52.2684 110.208C51.9805 110.208 51.6827 110.1 51.4543 109.884C39.6989 98.9465 39.2918 86.947 42.8363 79.3638C44.5143 75.7541 47.2347 72.5477 49.8558 69.4495C51.355 67.6791 52.7649 66.0169 53.996 64.2858C56.6966 60.4893 58.5333 55.778 59.2978 50.6635L59.5361 49.0406C60.7176 40.8574 62.336 29.6448 72.751 28.2187C76.9408 27.6482 80.0485 29.1236 83.3448 30.6874C86.512 32.1923 89.7884 33.7463 94.5541 33.7955C95.2094 33.8053 95.7455 34.3364 95.7356 34.9856C95.7256 35.6347 95.1994 36.156 94.5441 36.156H94.5342C89.2423 36.097 85.5588 34.3463 82.3221 32.8021C79.2343 31.3366 76.5636 30.0678 73.0886 30.5399C64.4607 31.7202 63.0409 41.5066 61.909 49.3652L61.6708 50.9979C60.8467 56.4764 58.8709 61.5319 55.9619 65.6333C54.6711 67.443 53.162 69.2331 51.7025 70.9544C49.1807 73.9345 46.5695 77.0229 45.0206 80.3375C40.1556 90.7633 46.0035 101.543 53.1024 108.153C53.579 108.595 53.6088 109.343 53.1521 109.825C52.8939 110.08 52.5862 110.208 52.2684 110.208Z" fill="#769763"/>
<path d="M52.2586 110.21C51.7126 110.21 51.2161 109.836 51.097 109.285C47.8206 94.5615 57.1435 87.8831 57.5406 87.6077C63.9842 82.4047 67.7472 77.2607 67.7869 73.5232C67.7968 72.1363 67.3004 71.0446 66.2678 70.1692C65.0168 69.1168 63.2197 69.0676 61.4723 70.0512C58.7718 71.5659 56.0315 75.7657 57.1633 82.6408C57.2725 83.2801 56.8258 83.8899 56.1804 83.9981C55.5251 84.1063 54.9195 83.6637 54.8103 83.0243C53.4798 74.9493 56.935 69.884 60.3008 67.9956C62.912 66.53 65.7912 66.6776 67.8067 68.3693C69.3754 69.6873 70.1896 71.4774 70.1697 73.5428C70.1201 78.0377 66.1487 83.703 58.9803 89.4863C58.5732 89.7814 50.5013 95.6336 53.4302 108.774C53.5692 109.413 53.1621 110.043 52.5267 110.18C52.4374 110.2 52.348 110.21 52.2586 110.21Z" fill="#769763"/>
<path d="M56.7862 126.389C56.1309 126.389 55.5948 125.858 55.5948 125.209C55.5948 123.901 55.565 122.563 55.5352 121.226C55.4062 115.088 55.2672 108.754 57.7493 102.941C59.3081 99.2826 62.0384 96.686 64.6893 94.1779C69.4848 89.624 71.9868 85.8471 73.3272 81.1162C75.0944 74.8903 75.8291 67.6316 75.5114 59.5369C75.1044 49.3079 77.3681 41.941 82.243 37.633C87.7434 32.7743 94.4551 33.748 94.7331 33.7873C95.3884 33.8857 95.8252 34.4955 95.7259 35.1348C95.6266 35.7741 95.021 36.2266 94.3657 36.1184C94.3061 36.1085 88.4384 35.2922 83.7918 39.4133C79.4928 43.2295 77.5071 49.9669 77.8843 59.4386C78.212 67.7791 77.4475 75.2837 75.6206 81.7457C73.8037 88.1487 69.9018 92.4763 66.3375 95.8696C63.756 98.3187 61.3136 100.64 59.9435 103.846C57.6699 109.197 57.7989 115.285 57.9181 121.167C57.9479 122.524 57.9776 123.872 57.9776 125.199C57.9776 125.868 57.4415 126.389 56.7862 126.389Z" fill="#769763"/>
<path d="M112.565 94.7385C111.909 94.7385 111.373 94.2074 111.373 93.5583V59.9599C111.373 59.3107 111.909 58.7796 112.565 58.7796C113.22 58.7796 113.756 59.3107 113.756 59.9599V93.5583C113.756 94.2074 113.22 94.7385 112.565 94.7385Z" fill="#769763"/>
<path d="M120.19 71.9495H112.565C111.909 71.9495 111.373 71.4183 111.373 70.7692C111.373 70.1201 111.909 69.5889 112.565 69.5889H120.19C122.543 69.5889 124.459 67.6907 124.459 65.3695C124.459 63.0384 122.543 61.1401 120.19 61.1401H112.565C111.909 61.1401 111.373 60.609 111.373 59.9599C111.373 59.3107 111.909 58.7796 112.565 58.7796H120.19C123.853 58.7796 126.842 61.7303 126.842 65.3695C126.842 69.0086 123.853 71.9495 120.19 71.9495Z" fill="#769763"/>
<path d="M126.723 94.7386C126.187 94.7386 125.69 94.3746 125.561 93.8337L120.1 71.0446C119.951 70.4053 120.349 69.7758 120.984 69.6184C121.629 69.4709 122.265 69.8643 122.424 70.4938L127.884 93.2829C128.033 93.9222 127.636 94.5517 127.001 94.7091C126.911 94.7287 126.812 94.7386 126.723 94.7386Z" fill="#769763"/>
<path d="M160.539 95.0533C158.067 95.0533 155.972 93.2239 155.664 90.7945L151.782 60.4221C151.703 59.773 152.159 59.1829 152.815 59.1042C153.47 59.0156 154.066 59.4779 154.145 60.1271L158.037 90.5092C158.196 91.7584 159.278 92.7026 160.549 92.7026C161.82 92.7026 162.892 91.7584 163.051 90.5092L166.933 60.1369C167.013 59.4878 167.608 59.0255 168.264 59.114C168.919 59.1927 169.376 59.7828 169.296 60.432L165.414 90.8043C165.106 93.2239 163.011 95.0533 160.539 95.0533Z" fill="#769763"/>
<path d="M207.928 95.0533H194.951C194.296 95.0533 193.76 94.5222 193.76 93.873V60.5992C193.76 59.95 194.296 59.4189 194.951 59.4189C195.607 59.4189 196.143 59.95 196.143 60.5992V92.6928H207.918C208.573 92.6928 209.11 93.2239 209.11 93.873C209.11 94.5222 208.583 95.0533 207.928 95.0533Z" fill="#769763"/>
<path d="M144.991 77.9394H135.41C134.755 77.9394 134.219 77.4082 134.219 76.7591C134.219 76.1099 134.755 75.5788 135.41 75.5788H144.991C145.647 75.5788 146.183 76.1099 146.183 76.7591C146.183 77.4082 145.647 77.9394 144.991 77.9394Z" fill="#F1D675"/>
<path d="M147.662 94.7385C147.066 94.7385 146.56 94.3058 146.481 93.7058L142.599 63.3335C142.44 62.0844 141.358 61.1401 140.087 61.1401C138.816 61.1401 137.744 62.0844 137.575 63.3335L133.713 93.7058C133.633 94.3549 133.027 94.8172 132.382 94.7287C131.727 94.65 131.27 94.0599 131.35 93.4107L135.232 63.0384C135.539 60.609 137.634 58.7796 140.107 58.7796C142.579 58.7796 144.674 60.609 144.981 63.0384L148.863 93.4107C148.943 94.0599 148.486 94.65 147.831 94.7287C147.761 94.7287 147.712 94.7385 147.662 94.7385Z" fill="#769763"/>
<path d="M184.973 76.6509H175.124C174.469 76.6509 173.933 76.1198 173.933 75.4706C173.933 74.8215 174.469 74.2903 175.124 74.2903H184.973C185.629 74.2903 186.165 74.8215 186.165 75.4706C186.165 76.1198 185.629 76.6509 184.973 76.6509Z" fill="#F1D675"/>
<path d="M186.861 94.8467H175.135C174.48 94.8467 173.944 94.3156 173.944 93.6665V60.7172C173.944 60.068 174.48 59.5369 175.135 59.5369H186.543C187.198 59.5369 187.734 60.068 187.734 60.7172C187.734 61.3663 187.198 61.8975 186.543 61.8975H176.326V92.4862H186.861C187.516 92.4862 188.052 93.0173 188.052 93.6665C188.052 94.3156 187.516 94.8467 186.861 94.8467Z" fill="#769763"/>
<path d="M99.1909 94.7385C98.5357 94.7385 97.9995 94.2074 97.9995 93.5583V59.9599C97.9995 59.3107 98.5357 58.7796 99.1909 58.7796C99.8462 58.7796 100.382 59.3107 100.382 59.9599V93.5681C100.382 94.2173 99.8462 94.7385 99.1909 94.7385Z" fill="#769763"/>
<path d="M106.27 61.1401H92.1118C91.4565 61.1401 90.9204 60.609 90.9204 59.9599C90.9204 59.3107 91.4565 58.7796 92.1118 58.7796H106.27C106.925 58.7796 107.461 59.3107 107.461 59.9599C107.461 60.609 106.935 61.1401 106.27 61.1401Z" fill="#769763"/>
<path d="M102.825 107.731C102.725 107.643 102.676 107.535 102.676 107.407C102.676 107.259 102.735 107.141 102.855 107.063C102.974 106.974 103.113 106.925 103.262 106.925C103.272 106.925 103.281 106.925 103.281 106.925C103.44 106.935 103.579 106.984 103.698 107.082C104.741 107.958 105.555 108.774 106.141 109.541C106.22 109.649 106.26 109.767 106.26 109.885C106.26 109.925 106.26 109.964 106.25 110.003C106.23 110.161 106.141 110.298 106.002 110.407C105.903 110.485 105.793 110.525 105.674 110.525C105.635 110.525 105.595 110.525 105.555 110.515C105.396 110.485 105.267 110.397 105.168 110.259C105.049 110.092 104.91 109.915 104.761 109.738C104.721 109.689 104.671 109.669 104.622 109.679C103.649 109.728 100.948 109.836 96.54 110.023C96.53 110.023 96.5201 110.023 96.5201 110.023C96.3712 110.023 96.2421 109.974 96.1329 109.885C96.0038 109.767 95.9343 109.62 95.9343 109.443C95.9343 109.315 95.984 109.197 96.0733 109.099C96.1726 108.98 96.3017 108.921 96.4605 108.912L97.6122 108.872C97.6619 108.872 97.7115 108.853 97.7413 108.803C98.3271 107.918 98.8434 106.974 99.31 105.981C99.3895 105.823 99.5086 105.695 99.6873 105.627C99.7767 105.587 99.876 105.568 99.9653 105.568C100.045 105.568 100.124 105.577 100.194 105.607C100.353 105.656 100.472 105.764 100.531 105.931C100.561 106 100.581 106.069 100.581 106.138C100.581 106.227 100.561 106.305 100.511 106.394C100.045 107.23 99.5682 108.017 99.0717 108.754C99.0618 108.774 99.0618 108.784 99.0717 108.803C99.0817 108.823 99.0916 108.823 99.1115 108.823C102.11 108.705 103.639 108.646 103.708 108.646C103.728 108.646 103.738 108.636 103.748 108.626C103.758 108.617 103.748 108.597 103.738 108.577C103.401 108.262 103.103 107.977 102.825 107.731ZM97.8108 116.298C97.652 116.298 97.5229 116.239 97.4137 116.131C97.3045 116.023 97.2449 115.885 97.2449 115.738V111.921C97.2449 111.725 97.3144 111.567 97.4534 111.439C97.5924 111.312 97.7512 111.243 97.9399 111.243H104.235C104.423 111.243 104.582 111.312 104.721 111.439C104.86 111.567 104.93 111.734 104.93 111.921V115.698C104.93 115.856 104.87 115.993 104.751 116.111C104.632 116.229 104.493 116.288 104.334 116.288H104.175C104.056 116.288 103.947 116.249 103.857 116.16C103.768 116.072 103.728 115.974 103.728 115.865C103.728 115.826 103.708 115.806 103.679 115.806H98.4462C98.4165 115.806 98.3966 115.826 98.3966 115.865C98.3966 115.983 98.3569 116.092 98.2675 116.18C98.1782 116.269 98.069 116.308 97.9498 116.308H97.8108V116.298ZM103.708 112.364C103.708 112.315 103.679 112.285 103.629 112.285H98.4661C98.4165 112.285 98.3867 112.315 98.3867 112.364V114.646C98.3867 114.705 98.4165 114.734 98.4661 114.734H103.629C103.679 114.734 103.708 114.705 103.708 114.646V112.364Z" fill="#769763"/>
<path d="M117.023 109.492C117.142 109.58 117.201 109.698 117.221 109.846C117.231 109.866 117.231 109.895 117.231 109.915C117.231 110.033 117.191 110.151 117.102 110.259C117.023 110.367 116.913 110.426 116.774 110.446C116.755 110.446 116.735 110.446 116.715 110.446C116.596 110.446 116.487 110.407 116.387 110.328C116.119 110.121 115.821 109.905 115.494 109.698C115.384 109.639 115.315 109.541 115.295 109.413C115.285 109.394 115.285 109.364 115.285 109.335C115.285 109.246 115.315 109.158 115.375 109.079C115.464 108.971 115.573 108.902 115.712 108.872C115.762 108.862 115.801 108.862 115.841 108.862C115.931 108.862 116.02 108.882 116.109 108.931C116.467 109.118 116.774 109.305 117.023 109.492ZM116.526 115.639C116.477 115.777 116.367 115.865 116.228 115.915C116.179 115.934 116.119 115.934 116.07 115.934C115.98 115.934 115.901 115.915 115.821 115.875C115.682 115.787 115.583 115.679 115.533 115.531C115.514 115.462 115.514 115.393 115.514 115.334C115.514 115.246 115.533 115.167 115.563 115.079C115.94 114.213 116.308 113.308 116.655 112.334C116.695 112.216 116.774 112.128 116.904 112.089C117.033 112.049 117.152 112.059 117.261 112.128C117.38 112.216 117.469 112.325 117.529 112.472C117.559 112.551 117.579 112.629 117.579 112.698C117.579 112.767 117.569 112.836 117.539 112.905C117.221 113.869 116.884 114.774 116.526 115.639ZM117.271 106.482C117.4 106.581 117.469 106.708 117.469 106.876C117.469 107.013 117.42 107.141 117.33 107.249C117.241 107.358 117.132 107.407 116.983 107.407H116.973C116.844 107.407 116.725 107.367 116.626 107.279C116.387 107.063 116.089 106.836 115.742 106.6C115.643 106.531 115.583 106.433 115.563 106.315C115.543 106.197 115.573 106.079 115.662 105.981C115.752 105.882 115.871 105.823 116.01 105.794C116.03 105.784 116.07 105.784 116.109 105.784C116.209 105.784 116.308 105.813 116.397 105.863C116.725 106.069 117.013 106.276 117.271 106.482ZM117.837 109.689C117.857 109.6 117.906 109.521 117.986 109.472C118.045 109.433 118.105 109.413 118.174 109.413C118.194 109.413 118.224 109.413 118.254 109.423C118.343 109.443 118.423 109.482 118.472 109.571C118.522 109.659 118.542 109.738 118.522 109.826C118.423 110.23 118.294 110.584 118.145 110.889C118.105 110.967 118.045 111.016 117.956 111.046C117.867 111.075 117.777 111.066 117.698 111.026C117.618 110.987 117.569 110.928 117.539 110.839C117.519 110.8 117.519 110.761 117.519 110.721C117.519 110.672 117.529 110.633 117.559 110.584C117.668 110.328 117.767 110.023 117.837 109.689ZM117.906 107.21C117.827 107.151 117.787 107.072 117.777 106.984C117.767 106.895 117.787 106.807 117.827 106.728L117.906 106.61C117.936 106.561 117.976 106.541 118.035 106.531C118.095 106.522 118.145 106.531 118.184 106.571C118.204 106.581 118.214 106.571 118.224 106.561C118.383 106.276 118.512 106.02 118.621 105.784C118.661 105.695 118.73 105.627 118.83 105.587C118.869 105.568 118.909 105.568 118.959 105.568C119.008 105.568 119.048 105.577 119.098 105.607C119.187 105.646 119.257 105.715 119.286 105.813C119.316 105.912 119.306 106 119.247 106.089C119.018 106.463 118.85 106.738 118.73 106.915C118.701 106.964 118.711 107.004 118.75 107.043C118.8 107.092 118.869 107.151 118.949 107.22C118.988 107.259 119.018 107.259 119.058 107.21C119.167 107.043 119.257 106.886 119.336 106.748C119.386 106.659 119.455 106.61 119.564 106.571C119.674 106.531 119.763 106.551 119.852 106.61C119.942 106.659 120.001 106.738 120.021 106.836C120.041 106.935 120.021 107.023 119.961 107.102C119.624 107.564 119.316 107.958 119.058 108.282C119.048 108.302 119.048 108.312 119.058 108.322C119.068 108.331 119.078 108.341 119.098 108.341L119.644 108.331C119.674 108.331 119.683 108.312 119.683 108.282C119.674 108.262 119.664 108.233 119.664 108.203C119.634 108.135 119.634 108.066 119.664 107.997C119.693 107.928 119.743 107.889 119.803 107.869C119.882 107.84 119.952 107.84 120.021 107.859C120.091 107.879 120.14 107.938 120.17 108.007C120.279 108.243 120.369 108.499 120.448 108.754C120.468 108.843 120.458 108.921 120.418 108.99C120.378 109.059 120.319 109.118 120.239 109.148L120.2 109.158C120.14 109.177 120.081 109.177 120.011 109.148C119.942 109.118 119.912 109.069 119.892 109C119.892 108.98 119.882 108.961 119.852 108.961L119.515 108.98C119.465 108.99 119.435 109.02 119.435 109.069V110.997C119.435 111.095 119.396 111.184 119.326 111.253C119.257 111.321 119.167 111.361 119.068 111.361C118.969 111.361 118.879 111.321 118.81 111.253C118.74 111.184 118.701 111.095 118.701 110.997V109.128C118.701 109.069 118.671 109.04 118.621 109.049C118.442 109.069 118.234 109.079 117.996 109.099C117.896 109.108 117.807 109.079 117.728 109.01C117.648 108.941 117.608 108.862 117.589 108.764C117.579 108.666 117.608 108.577 117.678 108.508C117.747 108.44 117.827 108.4 117.916 108.4L118.145 108.39C118.194 108.39 118.234 108.371 118.264 108.331C118.363 108.213 118.462 108.095 118.552 107.958C118.591 107.908 118.591 107.869 118.552 107.82C118.333 107.594 118.125 107.397 117.906 107.21ZM119.525 113.79C119.515 113.81 119.515 113.82 119.535 113.839C119.554 113.859 119.564 113.869 119.584 113.869H124.876C125.055 113.869 125.204 113.938 125.323 114.075C125.412 114.174 125.462 114.282 125.462 114.41C125.462 114.449 125.452 114.488 125.442 114.538C125.263 115.305 125.035 115.806 124.747 116.023C124.519 116.18 124.191 116.269 123.774 116.288C123.228 116.288 122.771 116.279 122.394 116.269C122.275 116.269 122.156 116.229 122.066 116.141C121.977 116.052 121.898 115.944 121.848 115.816C121.818 115.728 121.828 115.649 121.878 115.57C121.927 115.492 121.997 115.452 122.096 115.462C122.563 115.492 123.019 115.511 123.456 115.511C123.705 115.511 123.873 115.482 123.973 115.433C124.131 115.315 124.27 115.059 124.38 114.675C124.38 114.656 124.37 114.636 124.36 114.616C124.35 114.597 124.33 114.587 124.31 114.587H119.366C119.336 114.587 119.316 114.606 119.306 114.636C119.286 114.724 119.227 114.803 119.147 114.852C119.068 114.902 118.979 114.921 118.889 114.902L118.71 114.882C118.591 114.862 118.492 114.803 118.423 114.685C118.373 114.616 118.353 114.547 118.353 114.469C118.353 114.429 118.363 114.39 118.373 114.341C118.462 114.065 118.552 113.751 118.641 113.397C118.691 113.2 118.79 113.043 118.949 112.925C119.108 112.807 119.286 112.738 119.475 112.738H123.903C123.963 112.738 123.992 112.708 123.992 112.649V112.315C123.992 112.266 123.963 112.236 123.903 112.236H118.71C118.621 112.236 118.542 112.207 118.472 112.138C118.403 112.069 118.373 111.99 118.373 111.902C118.373 111.813 118.403 111.734 118.472 111.666C118.542 111.597 118.621 111.567 118.71 111.567H124.34C124.529 111.567 124.687 111.636 124.826 111.774C124.965 111.911 125.035 112.069 125.035 112.256V112.728C125.035 112.915 124.965 113.072 124.826 113.21C124.687 113.348 124.529 113.416 124.34 113.416H119.733C119.674 113.416 119.634 113.446 119.614 113.495L119.525 113.79ZM120.388 110.338C120.408 110.426 120.388 110.505 120.339 110.574C120.289 110.643 120.23 110.702 120.14 110.731C120.061 110.751 119.991 110.731 119.922 110.692C119.852 110.653 119.813 110.584 119.793 110.505C119.753 110.279 119.703 110.043 119.644 109.817C119.624 109.728 119.644 109.659 119.683 109.59C119.723 109.521 119.783 109.482 119.862 109.462C119.952 109.443 120.021 109.462 120.091 109.502C120.16 109.541 120.21 109.6 120.23 109.679C120.289 109.885 120.339 110.112 120.388 110.338ZM123.109 107.082C123.099 107.072 123.099 107.082 123.099 107.092C123.099 107.141 123.079 107.171 123.049 107.2C123.019 107.23 122.98 107.24 122.93 107.24H120.567C120.478 107.24 120.408 107.21 120.349 107.151C120.289 107.092 120.259 107.023 120.259 106.935C120.259 106.846 120.289 106.777 120.349 106.718C120.408 106.659 120.488 106.63 120.567 106.63H122.91C122.96 106.63 123 106.649 123.039 106.689C123.079 106.728 123.099 106.777 123.099 106.826H123.109L123.268 106.61C123.307 106.571 123.357 106.551 123.407 106.541C123.456 106.531 123.506 106.541 123.546 106.581C123.566 106.59 123.575 106.581 123.585 106.571C123.744 106.305 123.883 106.04 124.002 105.784C124.052 105.695 124.122 105.627 124.211 105.597C124.251 105.577 124.29 105.577 124.33 105.577C124.38 105.577 124.439 105.587 124.489 105.617C124.578 105.666 124.628 105.735 124.658 105.833C124.687 105.931 124.668 106.02 124.618 106.108C124.39 106.482 124.211 106.748 124.082 106.925C124.052 106.974 124.052 107.013 124.092 107.053C124.171 107.122 124.241 107.19 124.3 107.259C124.35 107.308 124.39 107.308 124.419 107.259C124.539 107.082 124.668 106.895 124.797 106.699C124.846 106.61 124.926 106.551 125.025 106.522C125.124 106.492 125.224 106.512 125.313 106.561C125.402 106.61 125.452 106.689 125.472 106.787C125.492 106.886 125.472 106.974 125.412 107.043C124.985 107.584 124.648 108.007 124.39 108.292C124.38 108.312 124.38 108.322 124.39 108.341C124.4 108.361 124.409 108.361 124.429 108.351L125.134 108.341C125.164 108.341 125.174 108.322 125.154 108.292C125.134 108.253 125.124 108.213 125.104 108.174C125.065 108.105 125.065 108.036 125.085 107.958C125.104 107.879 125.164 107.83 125.234 107.8C125.313 107.761 125.392 107.761 125.482 107.781C125.571 107.8 125.631 107.859 125.67 107.938C125.799 108.174 125.919 108.42 126.018 108.676C126.048 108.764 126.048 108.853 126.008 108.941C125.968 109.03 125.909 109.089 125.829 109.128L125.77 109.148C125.71 109.177 125.641 109.177 125.581 109.148C125.521 109.118 125.472 109.069 125.462 109C125.452 108.98 125.442 108.961 125.412 108.961L124.965 109C124.916 109 124.886 109.03 124.886 109.089V110.987C124.886 111.085 124.846 111.174 124.777 111.243C124.707 111.312 124.618 111.351 124.509 111.351C124.4 111.351 124.31 111.312 124.241 111.243C124.171 111.174 124.131 111.085 124.131 110.987V109.128C124.131 109.069 124.102 109.04 124.052 109.049L123.417 109.089C123.317 109.099 123.228 109.069 123.149 109C123.069 108.931 123.029 108.853 123.019 108.754C123.01 108.656 123.039 108.567 123.099 108.499C123.158 108.43 123.238 108.381 123.347 108.381H123.486C123.536 108.381 123.575 108.361 123.605 108.331C123.655 108.262 123.744 108.154 123.873 107.997C123.913 107.948 123.913 107.908 123.873 107.859C123.675 107.604 123.427 107.348 123.109 107.082ZM121.272 111.174C121.083 111.174 120.925 111.105 120.786 110.977C120.647 110.849 120.577 110.682 120.577 110.495V110.112C120.577 109.915 120.647 109.758 120.786 109.63C120.925 109.502 121.083 109.433 121.272 109.433H122.146C122.344 109.433 122.503 109.502 122.632 109.63C122.761 109.758 122.831 109.925 122.831 110.112V110.495C122.831 110.692 122.761 110.849 122.632 110.977C122.503 111.105 122.334 111.174 122.146 111.174H121.272ZM122.543 107.613C122.622 107.613 122.682 107.643 122.741 107.692C122.801 107.741 122.821 107.81 122.821 107.889C122.821 107.967 122.791 108.026 122.741 108.085C122.692 108.144 122.622 108.164 122.543 108.164H120.895C120.815 108.164 120.756 108.135 120.696 108.085C120.637 108.036 120.617 107.967 120.617 107.889C120.617 107.81 120.647 107.751 120.696 107.692C120.746 107.633 120.815 107.613 120.895 107.613H122.543ZM120.885 109.059C120.805 109.059 120.746 109.03 120.686 108.98C120.627 108.931 120.607 108.862 120.607 108.784C120.607 108.705 120.637 108.646 120.686 108.587C120.736 108.528 120.805 108.508 120.885 108.508H122.533C122.612 108.508 122.672 108.538 122.732 108.587C122.791 108.636 122.811 108.705 122.811 108.784C122.811 108.862 122.781 108.921 122.732 108.98C122.682 109.04 122.612 109.059 122.533 109.059H120.885ZM122.454 105.705C122.533 105.705 122.593 105.735 122.652 105.794C122.712 105.853 122.732 105.922 122.732 106C122.732 106.079 122.702 106.138 122.652 106.197C122.602 106.256 122.533 106.276 122.454 106.276H120.974C120.895 106.276 120.825 106.246 120.766 106.197C120.706 106.148 120.676 106.079 120.676 106C120.676 105.922 120.706 105.853 120.766 105.794C120.825 105.735 120.895 105.705 120.974 105.705H122.454ZM121.371 109.974C121.312 109.974 121.282 110.003 121.282 110.062V110.544C121.282 110.594 121.312 110.623 121.371 110.623H122.046C122.096 110.623 122.126 110.594 122.126 110.544V110.062C122.126 110.003 122.096 109.974 122.046 109.974H121.371ZM123.278 109.689C123.297 109.6 123.357 109.521 123.436 109.472C123.516 109.423 123.605 109.403 123.695 109.423C123.784 109.443 123.863 109.492 123.913 109.571C123.963 109.649 123.973 109.738 123.953 109.826C123.853 110.22 123.744 110.554 123.625 110.83C123.585 110.918 123.516 110.967 123.427 111.007C123.337 111.046 123.248 111.026 123.168 110.987C123.079 110.938 123.029 110.869 122.99 110.78C122.95 110.692 122.96 110.603 123 110.525C123.109 110.289 123.198 110.013 123.278 109.689ZM125.174 109.797C125.144 109.728 125.144 109.659 125.184 109.58C125.224 109.502 125.273 109.453 125.353 109.433C125.442 109.413 125.521 109.413 125.601 109.453C125.68 109.492 125.73 109.551 125.76 109.63C125.899 109.964 126.008 110.259 126.087 110.544C126.097 110.574 126.097 110.603 126.097 110.633C126.097 110.682 126.077 110.741 126.048 110.78C125.998 110.869 125.938 110.918 125.849 110.938C125.77 110.967 125.7 110.967 125.621 110.918C125.541 110.869 125.502 110.81 125.472 110.731C125.392 110.446 125.293 110.131 125.174 109.797Z" fill="#769763"/>
<path d="M144.237 115.206H144.654C144.743 115.206 144.803 115.147 144.832 115.02C144.862 114.892 144.892 114.616 144.912 114.193C144.912 114.095 144.952 114.016 145.041 113.977C145.13 113.938 145.22 113.928 145.319 113.967C145.448 114.016 145.547 114.105 145.617 114.223C145.686 114.311 145.726 114.42 145.726 114.538C145.726 115.079 145.637 115.502 145.448 115.797C145.309 116.003 145.081 116.111 144.773 116.111H144.078C143.691 116.111 143.433 116.033 143.304 115.865C143.174 115.698 143.115 115.383 143.115 114.921V112.63C143.115 112.571 143.085 112.541 143.025 112.541H142.569C142.519 112.541 142.479 112.571 142.479 112.63C142.43 113.456 142.291 114.144 142.082 114.665C141.874 115.187 141.506 115.629 141.01 115.964C140.891 116.033 140.782 116.072 140.663 116.072C140.613 116.072 140.553 116.062 140.484 116.052C140.305 116.003 140.146 115.895 140.017 115.738C139.987 115.698 139.938 115.679 139.878 115.679H136.483C136.433 115.679 136.413 115.698 136.413 115.738V115.757C136.413 115.875 136.373 115.983 136.284 116.072C136.195 116.161 136.095 116.2 135.966 116.2C135.837 116.2 135.738 116.161 135.649 116.072C135.559 115.983 135.52 115.875 135.52 115.757V112.944C135.52 112.925 135.51 112.915 135.5 112.915C135.49 112.915 135.47 112.915 135.46 112.934C135.42 112.984 135.381 113.043 135.341 113.092C135.261 113.18 135.162 113.229 135.053 113.22C134.944 113.21 134.844 113.161 134.775 113.062C134.695 112.964 134.656 112.856 134.656 112.728C134.656 112.59 134.705 112.462 134.795 112.354C135.271 111.764 135.649 111.056 135.946 110.23C135.956 110.21 135.956 110.19 135.937 110.171C135.917 110.151 135.907 110.141 135.887 110.141H135.758C135.559 110.141 135.4 110.072 135.271 109.944C135.142 109.817 135.073 109.649 135.073 109.462V108.617C135.073 108.42 135.142 108.263 135.271 108.135C135.4 108.007 135.569 107.938 135.758 107.938H136.711C136.91 107.938 137.068 108.007 137.197 108.135C137.327 108.263 137.396 108.43 137.396 108.617V109.462C137.396 109.659 137.327 109.817 137.197 109.944C137.068 110.072 136.9 110.141 136.711 110.141H136.532V110.151C136.622 110.171 136.681 110.22 136.721 110.298C136.761 110.377 136.761 110.456 136.731 110.525C136.691 110.633 136.641 110.771 136.582 110.928C136.572 110.948 136.572 110.967 136.592 110.987C136.612 111.007 136.622 111.007 136.632 111.007H137.605C137.654 111.007 137.694 110.977 137.724 110.928C137.853 110.564 137.932 110.308 137.972 110.141C137.982 110.131 137.982 110.131 137.972 110.131C137.912 110.131 137.883 110.102 137.883 110.053V108.617C137.883 108.42 137.952 108.263 138.091 108.135C138.23 108.007 138.389 107.938 138.578 107.938H139.61C139.809 107.938 139.968 108.007 140.097 108.135C140.226 108.263 140.295 108.43 140.295 108.617V109.462C140.295 109.659 140.226 109.817 140.097 109.944C139.968 110.072 139.799 110.141 139.61 110.141H138.379C138.369 110.141 138.369 110.151 138.369 110.161C138.518 110.19 138.617 110.279 138.687 110.417C138.717 110.476 138.736 110.535 138.736 110.603C138.736 110.672 138.717 110.741 138.677 110.81C138.657 110.849 138.637 110.889 138.607 110.938C138.597 110.957 138.597 110.977 138.617 110.997C138.637 111.016 138.647 111.016 138.657 111.016H139.997C140.107 111.016 140.196 111.056 140.275 111.135C140.355 111.213 140.385 111.302 140.385 111.41C140.385 111.518 140.345 111.607 140.275 111.685C140.206 111.764 140.107 111.803 139.997 111.803H138.528C138.468 111.803 138.439 111.833 138.439 111.882V112.285C138.439 112.344 138.468 112.374 138.528 112.374H139.799C139.898 112.374 139.987 112.403 140.047 112.472C140.107 112.541 140.146 112.62 140.146 112.718C140.146 112.816 140.116 112.895 140.047 112.964C139.977 113.033 139.898 113.062 139.799 113.062H138.528C138.468 113.062 138.439 113.092 138.439 113.151V113.564C138.439 113.613 138.468 113.643 138.528 113.643H139.799C139.898 113.643 139.987 113.682 140.047 113.751C140.107 113.82 140.146 113.898 140.146 113.997C140.146 114.095 140.116 114.174 140.047 114.243C139.977 114.311 139.898 114.351 139.799 114.351H138.528C138.468 114.351 138.439 114.38 138.439 114.429V114.852C138.439 114.902 138.468 114.931 138.528 114.931H140.166C140.226 114.931 140.285 114.951 140.325 115C140.365 115.049 140.394 115.108 140.394 115.177C140.394 115.197 140.404 115.206 140.434 115.187C140.821 114.921 141.099 114.597 141.258 114.193C141.417 113.79 141.516 113.269 141.556 112.63C141.566 112.58 141.536 112.551 141.487 112.551C141.318 112.551 141.169 112.492 141.05 112.374C140.931 112.256 140.871 112.118 140.871 111.951V106.61C140.871 106.413 140.941 106.256 141.08 106.128C141.219 106 141.377 105.931 141.566 105.931H144.485C144.674 105.931 144.832 106 144.971 106.128C145.11 106.256 145.18 106.423 145.18 106.61V111.862C145.18 112.059 145.11 112.216 144.971 112.344C144.832 112.472 144.674 112.541 144.485 112.541H144.167C144.118 112.541 144.088 112.571 144.088 112.63V114.911C144.088 115.039 144.098 115.128 144.128 115.167C144.157 115.206 144.157 115.206 144.237 115.206ZM136.8 107.574C136.711 107.663 136.592 107.702 136.463 107.702C136.334 107.702 136.224 107.663 136.135 107.574C136.046 107.485 136.006 107.377 136.006 107.249V107.092C136.006 107.043 135.976 107.013 135.927 107.013H135.192C135.083 107.013 134.993 106.974 134.914 106.895C134.834 106.817 134.795 106.728 134.795 106.62C134.795 106.512 134.834 106.423 134.914 106.345C134.993 106.266 135.083 106.227 135.192 106.227H135.927C135.976 106.227 136.006 106.197 136.006 106.148V105.981C136.006 105.863 136.046 105.754 136.135 105.656C136.224 105.558 136.334 105.518 136.463 105.518C136.592 105.518 136.711 105.568 136.8 105.656C136.89 105.745 136.939 105.853 136.939 105.981V106.138C136.939 106.187 136.959 106.217 137.009 106.217H138.28C138.329 106.217 138.359 106.187 138.359 106.138V105.981C138.359 105.863 138.409 105.754 138.498 105.656C138.587 105.558 138.707 105.518 138.836 105.518C138.965 105.518 139.074 105.568 139.163 105.656C139.253 105.745 139.292 105.853 139.292 105.981V106.138C139.292 106.187 139.322 106.217 139.372 106.217H140.047C140.156 106.217 140.246 106.256 140.325 106.335C140.404 106.413 140.444 106.502 140.444 106.61C140.444 106.718 140.404 106.807 140.325 106.886C140.246 106.964 140.156 107.004 140.047 107.004H139.372C139.322 107.004 139.292 107.033 139.292 107.082V107.24C139.292 107.367 139.253 107.476 139.163 107.564C139.074 107.653 138.965 107.692 138.836 107.692C138.707 107.692 138.587 107.653 138.498 107.564C138.409 107.476 138.359 107.367 138.359 107.24V107.082C138.359 107.033 138.329 107.004 138.28 107.004H137.009C136.959 107.004 136.939 107.033 136.939 107.082V107.24C136.939 107.377 136.89 107.485 136.8 107.574ZM135.877 108.617C135.817 108.617 135.788 108.646 135.788 108.705V109.364C135.788 109.423 135.817 109.453 135.877 109.453H136.532C136.592 109.453 136.622 109.423 136.622 109.364V108.705C136.622 108.646 136.592 108.617 136.532 108.617H135.877ZM137.406 112.364C137.466 112.364 137.495 112.334 137.495 112.275V111.872C137.495 111.823 137.466 111.793 137.406 111.793H136.483C136.423 111.793 136.393 111.823 136.393 111.872V112.275C136.393 112.334 136.423 112.364 136.483 112.364H137.406ZM137.406 113.633C137.466 113.633 137.495 113.603 137.495 113.554V113.141C137.495 113.082 137.466 113.052 137.406 113.052H136.483C136.423 113.052 136.393 113.082 136.393 113.141V113.554C136.393 113.603 136.423 113.633 136.483 113.633H137.406ZM136.483 114.321C136.423 114.321 136.393 114.351 136.393 114.4V114.823C136.393 114.872 136.423 114.902 136.483 114.902H137.406C137.466 114.902 137.495 114.872 137.495 114.823V114.4C137.495 114.351 137.466 114.321 137.406 114.321H136.483ZM138.697 108.617C138.647 108.617 138.617 108.646 138.617 108.705V109.364C138.617 109.423 138.647 109.453 138.697 109.453H139.421C139.481 109.453 139.511 109.423 139.511 109.364V108.705C139.511 108.646 139.481 108.617 139.421 108.617H138.697ZM141.884 106.866C141.824 106.866 141.794 106.895 141.794 106.945V107.761C141.794 107.82 141.824 107.849 141.884 107.849H144.048C144.098 107.849 144.128 107.82 144.128 107.761V106.945C144.128 106.895 144.098 106.866 144.048 106.866H141.884ZM141.884 108.695C141.824 108.695 141.794 108.725 141.794 108.784V109.61C141.794 109.659 141.824 109.689 141.884 109.689H144.048C144.098 109.689 144.128 109.659 144.128 109.61V108.784C144.128 108.725 144.098 108.695 144.048 108.695H141.884ZM141.884 110.554C141.824 110.554 141.794 110.584 141.794 110.643V111.469C141.794 111.518 141.824 111.548 141.884 111.548H144.048C144.098 111.548 144.128 111.518 144.128 111.469V110.643C144.128 110.584 144.098 110.554 144.048 110.554H141.884Z" fill="#769763"/>
<path d="M162.227 115.246H163.577C163.776 115.246 163.905 115.157 163.965 114.99C164.024 114.823 164.084 114.449 164.113 113.888C164.123 113.77 164.183 113.672 164.292 113.613C164.401 113.554 164.511 113.544 164.63 113.603C164.789 113.672 164.908 113.78 165.007 113.918C165.086 114.036 165.126 114.154 165.126 114.292C165.126 114.311 165.126 114.341 165.126 114.361C165.047 115.118 164.908 115.62 164.709 115.885C164.511 116.151 164.163 116.279 163.687 116.279H162.108C161.522 116.279 161.135 116.17 160.936 115.964C160.738 115.757 160.638 115.364 160.638 114.774V110.977C160.638 110.928 160.609 110.898 160.549 110.898H158.762C158.712 110.898 158.673 110.928 158.673 110.977C158.623 111.489 158.563 111.931 158.494 112.305C158.424 112.679 158.305 113.072 158.156 113.475C158.007 113.879 157.819 114.223 157.59 114.528C157.362 114.833 157.074 115.118 156.707 115.383C156.339 115.649 155.912 115.895 155.426 116.092C155.347 116.121 155.267 116.141 155.198 116.141C155.128 116.141 155.039 116.121 154.969 116.092C154.81 116.042 154.681 115.934 154.572 115.797C154.522 115.718 154.493 115.639 154.493 115.551C154.493 115.511 154.493 115.472 154.503 115.433C154.542 115.305 154.622 115.206 154.751 115.157C155.178 115 155.545 114.803 155.863 114.577C156.181 114.351 156.429 114.115 156.617 113.879C156.806 113.643 156.965 113.357 157.084 113.023C157.203 112.689 157.302 112.374 157.362 112.069C157.422 111.764 157.471 111.4 157.511 110.977C157.521 110.928 157.491 110.898 157.432 110.898H154.999C154.85 110.898 154.721 110.849 154.622 110.741C154.522 110.633 154.463 110.515 154.463 110.367C154.463 110.22 154.513 110.102 154.622 109.994C154.731 109.885 154.85 109.846 154.999 109.846H159.06C159.119 109.846 159.149 109.817 159.149 109.758V106.02C159.149 105.863 159.199 105.735 159.308 105.627C159.417 105.518 159.546 105.469 159.705 105.469C159.864 105.469 159.993 105.518 160.102 105.627C160.212 105.735 160.261 105.863 160.261 106.02V109.758C160.261 109.817 160.291 109.846 160.351 109.846H164.501C164.65 109.846 164.779 109.895 164.878 109.994C164.977 110.092 165.037 110.22 165.037 110.367C165.037 110.515 164.987 110.643 164.878 110.741C164.769 110.839 164.65 110.898 164.501 110.898H161.86C161.8 110.898 161.77 110.928 161.77 110.977V114.774C161.77 114.97 161.8 115.088 161.86 115.157C161.919 115.226 162.019 115.246 162.227 115.246ZM157.561 108.331C157.58 108.39 157.6 108.459 157.6 108.528C157.6 108.617 157.58 108.695 157.541 108.774C157.471 108.921 157.362 109.02 157.203 109.089C157.144 109.108 157.084 109.128 157.015 109.128C156.935 109.128 156.856 109.108 156.786 109.069C156.647 109 156.548 108.892 156.498 108.744C156.28 108.154 155.982 107.515 155.615 106.846C155.575 106.777 155.555 106.708 155.555 106.64C155.555 106.59 155.565 106.531 155.575 106.482C155.625 106.354 155.714 106.266 155.843 106.217C155.922 106.187 156.002 106.168 156.071 106.168C156.141 106.168 156.21 106.177 156.28 106.207C156.429 106.256 156.548 106.354 156.627 106.482C157.034 107.131 157.342 107.751 157.561 108.331ZM162.823 106.463C162.892 106.305 163.001 106.197 163.15 106.128C163.24 106.079 163.319 106.059 163.409 106.059C163.478 106.059 163.548 106.079 163.617 106.109C163.776 106.158 163.885 106.266 163.945 106.404C163.974 106.472 163.994 106.541 163.994 106.61C163.994 106.699 163.974 106.777 163.935 106.856C163.548 107.623 163.19 108.282 162.853 108.813C162.773 108.931 162.664 109.02 162.515 109.069C162.455 109.089 162.386 109.089 162.316 109.089C162.247 109.089 162.177 109.079 162.098 109.049C161.979 109 161.889 108.912 161.84 108.784C161.82 108.735 161.82 108.695 161.82 108.646C161.82 108.567 161.84 108.499 161.88 108.43C162.227 107.79 162.545 107.141 162.823 106.463Z" fill="#769763"/>
<path d="M177.328 110.603C177.378 110.594 177.418 110.594 177.457 110.594C177.547 110.594 177.626 110.613 177.706 110.662C177.825 110.741 177.884 110.839 177.904 110.977C177.914 111.007 177.914 111.036 177.914 111.066C177.914 111.174 177.884 111.272 177.825 111.38C177.735 111.498 177.626 111.587 177.487 111.626L176.584 111.892C176.524 111.912 176.494 111.941 176.494 112V115.088C176.494 115.383 176.465 115.61 176.395 115.767C176.326 115.924 176.206 116.042 176.038 116.121C175.789 116.239 175.412 116.298 174.896 116.318H174.886C174.737 116.318 174.608 116.269 174.489 116.18C174.37 116.082 174.28 115.954 174.231 115.797C174.191 115.679 174.211 115.57 174.28 115.472C174.35 115.374 174.449 115.324 174.568 115.324C174.677 115.334 174.777 115.334 174.856 115.334C174.995 115.334 175.104 115.334 175.174 115.324C175.263 115.324 175.313 115.305 175.353 115.275C175.392 115.246 175.402 115.187 175.402 115.088V112.325C175.402 112.305 175.392 112.285 175.382 112.275C175.372 112.266 175.343 112.266 175.323 112.266C175.084 112.334 174.806 112.413 174.499 112.492C174.449 112.511 174.399 112.511 174.35 112.511C174.26 112.511 174.171 112.482 174.082 112.433C173.953 112.354 173.863 112.246 173.824 112.098C173.804 112.049 173.804 112.01 173.804 111.961C173.804 111.872 173.833 111.774 173.883 111.685C173.963 111.567 174.072 111.479 174.221 111.439C174.687 111.331 175.055 111.243 175.323 111.164C175.372 111.144 175.402 111.115 175.402 111.056V108.882C175.402 108.833 175.372 108.803 175.323 108.803H174.36C174.221 108.803 174.102 108.754 174.002 108.656C173.903 108.558 173.853 108.44 173.853 108.292C173.853 108.144 173.903 108.026 174.002 107.938C174.102 107.849 174.221 107.79 174.36 107.79H175.323C175.372 107.79 175.402 107.761 175.402 107.702V106.04C175.402 105.882 175.452 105.754 175.561 105.656C175.67 105.558 175.799 105.499 175.948 105.499C176.097 105.499 176.226 105.548 176.335 105.656C176.445 105.764 176.494 105.892 176.494 106.04V107.702C176.494 107.761 176.524 107.79 176.584 107.79H177.279C177.418 107.79 177.537 107.84 177.636 107.938C177.735 108.036 177.785 108.154 177.785 108.292C177.785 108.43 177.735 108.558 177.636 108.656C177.537 108.754 177.418 108.803 177.279 108.803H176.584C176.524 108.803 176.494 108.833 176.494 108.882V110.751C176.494 110.771 176.504 110.79 176.524 110.81C176.544 110.83 176.564 110.83 176.584 110.82C177.001 110.692 177.259 110.623 177.328 110.603ZM179.006 116.298C178.857 116.298 178.728 116.249 178.629 116.141C178.53 116.033 178.47 115.915 178.47 115.777V111.764C178.47 111.577 178.54 111.42 178.679 111.282C178.818 111.144 178.976 111.075 179.165 111.075H183.444C183.633 111.075 183.792 111.144 183.931 111.282C184.07 111.42 184.139 111.577 184.139 111.764V115.698C184.139 115.846 184.09 115.974 183.98 116.082C183.871 116.19 183.742 116.239 183.593 116.239H183.464C183.345 116.239 183.246 116.2 183.166 116.111C183.087 116.023 183.047 115.924 183.047 115.816C183.047 115.787 183.027 115.767 182.988 115.767H179.602C179.562 115.767 179.542 115.787 179.542 115.826C179.542 115.954 179.493 116.072 179.403 116.161C179.314 116.249 179.195 116.298 179.066 116.298H179.006ZM180.446 109.256H182.859C183.127 109.256 183.305 109.197 183.405 109.079C183.504 108.961 183.573 108.725 183.613 108.361C183.633 108.243 183.693 108.144 183.802 108.085C183.911 108.026 184.03 108.017 184.149 108.056C184.298 108.115 184.417 108.213 184.497 108.341C184.566 108.44 184.606 108.548 184.606 108.666C184.606 108.695 184.606 108.725 184.606 108.754C184.517 109.325 184.348 109.708 184.119 109.915C183.891 110.121 183.494 110.23 182.928 110.23H180.366C179.632 110.23 179.135 110.131 178.877 109.925C178.619 109.718 178.49 109.335 178.49 108.754V106.03C178.49 105.882 178.54 105.754 178.649 105.646C178.758 105.538 178.877 105.489 179.036 105.489C179.195 105.489 179.314 105.538 179.423 105.646C179.532 105.754 179.582 105.882 179.582 106.03V107.063C179.582 107.112 179.612 107.141 179.662 107.131C180.803 106.876 181.776 106.6 182.581 106.286C182.69 106.246 182.799 106.227 182.908 106.227C182.968 106.227 183.027 106.227 183.087 106.236C183.256 106.266 183.405 106.345 183.534 106.463C183.613 106.541 183.653 106.62 183.653 106.718C183.653 106.748 183.653 106.777 183.643 106.797C183.623 106.935 183.544 107.023 183.415 107.063C182.402 107.417 181.161 107.731 179.681 108.007C179.632 108.017 179.602 108.046 179.602 108.115V108.735C179.602 108.931 179.652 109.069 179.761 109.128C179.87 109.187 180.088 109.256 180.446 109.256ZM183.037 112.089C183.037 112.03 183.007 112 182.948 112H179.622C179.572 112 179.542 112.03 179.542 112.089V112.905C179.542 112.954 179.572 112.984 179.622 112.984H182.948C183.007 112.984 183.037 112.954 183.037 112.905V112.089ZM179.532 114.784C179.532 114.843 179.562 114.872 179.612 114.872H182.938C182.998 114.872 183.027 114.843 183.027 114.784V113.928C183.027 113.879 182.998 113.849 182.938 113.849H179.612C179.562 113.849 179.532 113.879 179.532 113.928V114.784Z" fill="#769763"/>
<path d="M203.818 106.718C203.917 106.817 203.967 106.935 203.967 107.082C203.967 107.23 203.917 107.348 203.818 107.446C203.719 107.544 203.599 107.594 203.46 107.594H199.32C199.271 107.594 199.231 107.623 199.231 107.682C199.191 107.958 199.142 108.262 199.092 108.577C199.082 108.626 199.112 108.656 199.161 108.656H202.756C202.954 108.656 203.113 108.725 203.242 108.862C203.371 109 203.441 109.158 203.441 109.344V115.098C203.441 115.393 203.401 115.629 203.312 115.777C203.222 115.924 203.083 116.042 202.865 116.121C202.597 116.229 202.08 116.279 201.326 116.279C201.177 116.279 201.038 116.239 200.919 116.151C200.8 116.062 200.71 115.944 200.651 115.797C200.601 115.688 200.611 115.59 200.671 115.492C200.73 115.393 200.819 115.354 200.939 115.364C201.137 115.364 201.306 115.364 201.465 115.364C201.693 115.364 201.882 115.364 202.031 115.354C202.13 115.354 202.2 115.334 202.239 115.305C202.279 115.275 202.299 115.206 202.299 115.098V109.777C202.299 109.718 202.269 109.689 202.219 109.689H195.309C195.259 109.689 195.23 109.718 195.23 109.777V115.738C195.23 115.895 195.18 116.023 195.071 116.131C194.962 116.239 194.833 116.288 194.684 116.288C194.535 116.288 194.406 116.239 194.296 116.131C194.187 116.023 194.138 115.895 194.138 115.738V109.354C194.138 109.167 194.207 109.01 194.336 108.872C194.465 108.735 194.634 108.666 194.823 108.666H197.92C197.97 108.666 198.01 108.636 198.01 108.587C198.02 108.538 198.039 108.41 198.059 108.194C198.079 107.977 198.109 107.81 198.119 107.682C198.129 107.623 198.099 107.594 198.039 107.594H194.088C193.949 107.594 193.83 107.544 193.73 107.446C193.631 107.348 193.582 107.23 193.582 107.082C193.582 106.935 193.631 106.817 193.73 106.718C193.83 106.62 193.949 106.571 194.088 106.571H198.149C198.208 106.571 198.248 106.541 198.258 106.492C198.268 106.354 198.278 106.217 198.278 106.079C198.298 105.922 198.367 105.784 198.486 105.676C198.595 105.587 198.715 105.538 198.864 105.538C198.883 105.538 198.903 105.538 198.923 105.538C199.092 105.558 199.231 105.627 199.33 105.754C199.42 105.863 199.459 105.981 199.459 106.108C199.459 106.128 199.459 106.158 199.459 106.187C199.439 106.266 199.429 106.364 199.41 106.482C199.4 106.531 199.429 106.561 199.489 106.561H203.47C203.599 106.561 203.719 106.62 203.818 106.718ZM201.604 113.328C201.693 113.416 201.733 113.515 201.733 113.643C201.733 113.77 201.693 113.869 201.604 113.957C201.514 114.046 201.415 114.085 201.296 114.085H199.34C199.29 114.085 199.261 114.115 199.261 114.174V115.502C199.261 115.649 199.211 115.767 199.112 115.875C199.012 115.983 198.883 116.023 198.734 116.023C198.586 116.023 198.466 115.974 198.357 115.875C198.248 115.777 198.208 115.649 198.208 115.502V114.174C198.208 114.115 198.178 114.085 198.119 114.085H196.252C196.133 114.085 196.034 114.046 195.945 113.957C195.855 113.869 195.815 113.77 195.815 113.643C195.815 113.515 195.855 113.416 195.945 113.328C196.034 113.239 196.133 113.2 196.252 113.2H198.119C198.178 113.2 198.208 113.17 198.208 113.111V112.275C198.208 112.226 198.178 112.197 198.119 112.197H196.501C196.381 112.197 196.272 112.157 196.193 112.069C196.113 111.98 196.074 111.882 196.074 111.764C196.074 111.646 196.113 111.548 196.193 111.459C196.272 111.371 196.381 111.331 196.501 111.331H197.066C197.086 111.331 197.106 111.321 197.126 111.302C197.146 111.282 197.146 111.262 197.136 111.243C197.066 110.997 196.957 110.721 196.808 110.416C196.759 110.318 196.749 110.21 196.798 110.112C196.848 110.013 196.918 109.944 197.027 109.905C197.076 109.895 197.136 109.895 197.176 109.895C197.255 109.895 197.335 109.915 197.404 109.944C197.523 109.994 197.613 110.072 197.672 110.19C197.742 110.328 197.811 110.466 197.871 110.603C197.9 110.672 197.92 110.741 197.92 110.81C197.92 110.889 197.9 110.957 197.861 111.026C197.791 111.174 197.672 111.272 197.513 111.312C197.513 111.331 197.513 111.331 197.523 111.331H199.31C199.36 111.331 199.4 111.302 199.429 111.253C199.588 110.898 199.717 110.564 199.827 110.249C199.876 110.112 199.956 110.003 200.085 109.935C200.174 109.885 200.263 109.856 200.353 109.856C200.393 109.856 200.432 109.856 200.472 109.866C200.601 109.895 200.7 109.974 200.76 110.082C200.79 110.151 200.81 110.22 200.81 110.279C200.81 110.328 200.8 110.387 200.77 110.436C200.621 110.771 200.502 111.046 200.393 111.243C200.383 111.262 200.383 111.272 200.402 111.292C200.422 111.312 200.432 111.321 200.452 111.321H201.058C201.177 111.321 201.286 111.361 201.375 111.449C201.465 111.538 201.505 111.636 201.505 111.754C201.505 111.872 201.465 111.971 201.375 112.059C201.286 112.148 201.187 112.187 201.058 112.187H199.32C199.271 112.187 199.241 112.216 199.241 112.266V113.111C199.241 113.17 199.271 113.2 199.32 113.2H201.276C201.405 113.2 201.514 113.249 201.604 113.328Z" fill="#769763"/>
</g>
<defs>
<clipPath id="clip0_98_5476">
<rect width="168.239" height="98.3068" fill="white" transform="translate(40.8806 28.0827)"/>
</clipPath>
</defs>
</svg>
